<svg width="26" height="36" viewBox="0 0 26 36" fill="none" xmlns="http://www.w3.org/2000/svg">
<path d="M13.0002 22.394C16.6217 22.394 19.5567 19.4438 19.5567 15.8031V7.01523C19.5567 3.37453 16.6217 0.424316 13.0002 0.424316C9.37873 0.424316 6.44375 3.37453 6.44375 7.01523V15.8031C6.44375 19.4438 9.37873 22.394 13.0002 22.394ZM25.7275 15.7246C25.7275 15.552 25.5887 15.4108 25.419 15.4108H23.1049C22.9352 15.4108 22.7964 15.552 22.7964 15.7246C22.7964 21.2288 18.4112 25.6895 13.0002 25.6895C7.5892 25.6895 3.20408 21.2288 3.20408 15.7246C3.20408 15.552 3.06524 15.4108 2.89554 15.4108H0.581489C0.411792 15.4108 0.272949 15.552 0.272949 15.7246C0.272949 22.343 5.15559 27.8041 11.4575 28.5769V32.5942H5.85367C5.32529 32.5942 4.90105 33.1552 4.90105 33.8496V35.262C4.90105 35.4346 5.00904 35.5758 5.14017 35.5758H20.8603C20.9914 35.5758 21.0994 35.4346 21.0994 35.262V33.8496C21.0994 33.1552 20.6752 32.5942 20.1468 32.5942H14.3887V28.5965C20.7639 27.8904 25.7275 22.3979 25.7275 15.7246Z" fill="#4584FF"/>
</svg>
